<svg xmlns="http://www.w3.org/2000/svg" xmlns:xlink="http://www.w3.org/1999/xlink" width="40" zoomAndPan="magnify" viewBox="0 0 30 37.5" height="50" preserveAspectRatio="xMidYMid meet" version="1.0"><defs><g/><clipPath id="b6628df64a"><path d="M 4.898438 14.074219 L 25.570312 14.074219 L 25.570312 34.039062 L 4.898438 34.039062 Z M 4.898438 14.074219 " clip-rule="nonzero"/></clipPath><clipPath id="71f576cb8f"><path d="M 3.390625 11.359375 L 10.792969 11.359375 L 10.792969 19.5 L 3.390625 19.5 Z M 3.390625 11.359375 " clip-rule="nonzero"/></clipPath></defs><g clip-path="url(#b6628df64a)"><path fill="#0097b2" d="M 17.804688 14.160156 C 17.246094 14.695312 17.042969 15.546875 17.414062 16.242188 C 17.71875 16.8125 18.347656 17.132812 18.195312 17.871094 C 18.140625 18.148438 17.996094 18.429688 17.804688 18.636719 C 17.546875 18.910156 17.960938 19.324219 18.21875 19.050781 C 18.738281 18.492188 18.972656 17.648438 18.648438 16.9375 C 18.386719 16.367188 17.691406 16.019531 17.816406 15.3125 C 17.863281 15.039062 18.019531 14.765625 18.21875 14.574219 C 18.488281 14.3125 18.074219 13.898438 17.804688 14.160156 Z M 15.75 14.160156 C 15.191406 14.695312 14.988281 15.546875 15.359375 16.242188 C 15.664062 16.8125 16.292969 17.132812 16.140625 17.871094 C 16.085938 18.148438 15.941406 18.429688 15.75 18.636719 C 15.492188 18.910156 15.90625 19.324219 16.164062 19.050781 C 16.683594 18.492188 16.921875 17.648438 16.59375 16.9375 C 16.332031 16.367188 15.636719 16.019531 15.761719 15.3125 C 15.808594 15.039062 15.964844 14.765625 16.164062 14.574219 C 16.433594 14.3125 16.019531 13.898438 15.75 14.160156 Z M 13.695312 14.160156 C 13.136719 14.695312 12.933594 15.546875 13.304688 16.242188 C 13.609375 16.8125 14.238281 17.132812 14.085938 17.871094 C 14.03125 18.148438 13.886719 18.429688 13.695312 18.636719 C 13.4375 18.910156 13.851562 19.324219 14.109375 19.050781 C 14.628906 18.492188 14.867188 17.648438 14.539062 16.9375 C 14.277344 16.367188 13.582031 16.019531 13.707031 15.3125 C 13.753906 15.039062 13.910156 14.765625 14.109375 14.574219 C 14.378906 14.3125 13.964844 13.898438 13.695312 14.160156 Z M 21.167969 21.722656 C 20.257812 22.363281 19.34375 23.003906 18.433594 23.644531 C 18.839844 23.714844 19.246094 23.640625 19.628906 23.339844 C 20.386719 22.734375 22.003906 22.285156 23.109375 22.597656 C 23.542969 22.722656 23.867188 22.953125 24.0625 23.273438 C 24.660156 23.050781 24.820312 22.867188 24.820312 22.808594 C 24.820312 22.710938 24.367188 22.257812 22.144531 21.871094 C 21.835938 21.816406 21.507812 21.769531 21.167969 21.722656 Z M 24.789062 23.59375 C 24.769531 23.601562 24.753906 23.613281 24.734375 23.621094 C 24.722656 23.628906 24.714844 23.632812 24.703125 23.640625 C 24.671875 23.652344 24.640625 23.667969 24.605469 23.683594 C 24.601562 23.6875 24.59375 23.691406 24.585938 23.695312 C 24.554688 23.707031 24.527344 23.722656 24.492188 23.734375 C 24.480469 23.742188 24.464844 23.746094 24.449219 23.753906 C 24.425781 23.765625 24.402344 23.773438 24.375 23.785156 C 24.359375 23.789062 24.339844 23.796875 24.320312 23.804688 C 24.296875 23.8125 24.273438 23.824219 24.246094 23.832031 C 24.226562 23.839844 24.207031 23.847656 24.183594 23.855469 C 24.160156 23.863281 24.136719 23.871094 24.109375 23.878906 C 24.085938 23.886719 24.0625 23.894531 24.039062 23.902344 C 24.015625 23.910156 23.988281 23.917969 23.960938 23.929688 C 23.9375 23.9375 23.914062 23.945312 23.886719 23.949219 C 23.859375 23.960938 23.832031 23.96875 23.800781 23.976562 C 23.777344 23.984375 23.75 23.992188 23.722656 24 C 23.695312 24.007812 23.664062 24.015625 23.632812 24.023438 C 23.605469 24.03125 23.578125 24.039062 23.546875 24.046875 C 23.515625 24.054688 23.484375 24.0625 23.449219 24.074219 C 23.421875 24.078125 23.390625 24.085938 23.363281 24.09375 C 23.328125 24.101562 23.292969 24.109375 23.253906 24.117188 C 23.226562 24.125 23.195312 24.132812 23.164062 24.140625 C 23.125 24.148438 23.085938 24.160156 23.046875 24.167969 C 23.015625 24.175781 22.984375 24.179688 22.953125 24.1875 C 22.910156 24.195312 22.867188 24.207031 22.824219 24.214844 C 22.792969 24.21875 22.761719 24.226562 22.730469 24.234375 C 22.679688 24.242188 22.628906 24.253906 22.578125 24.261719 C 22.550781 24.269531 22.523438 24.273438 22.496094 24.277344 C 22.414062 24.292969 22.332031 24.308594 22.246094 24.324219 C 20.464844 24.632812 18.140625 24.8125 15.652344 24.832031 C 15.484375 24.835938 15.320312 24.835938 15.152344 24.835938 C 14.984375 24.835938 14.816406 24.835938 14.652344 24.832031 C 12.164062 24.8125 9.835938 24.632812 8.058594 24.324219 C 7.972656 24.308594 7.890625 24.292969 7.808594 24.277344 C 7.78125 24.273438 7.753906 24.269531 7.726562 24.261719 C 7.675781 24.253906 7.625 24.242188 7.574219 24.234375 C 7.542969 24.226562 7.511719 24.21875 7.480469 24.214844 C 7.4375 24.207031 7.394531 24.195312 7.351562 24.1875 C 7.320312 24.179688 7.289062 24.175781 7.257812 24.167969 C 7.21875 24.160156 7.179688 24.148438 7.140625 24.140625 C 7.109375 24.132812 7.078125 24.125 7.046875 24.117188 C 7.011719 24.109375 6.976562 24.101562 6.941406 24.09375 C 6.914062 24.085938 6.882812 24.078125 6.855469 24.074219 C 6.820312 24.0625 6.789062 24.054688 6.753906 24.046875 C 6.726562 24.039062 6.699219 24.03125 6.671875 24.023438 C 6.640625 24.015625 6.609375 24.007812 6.582031 24 C 6.554688 23.992188 6.527344 23.984375 6.5 23.976562 C 6.472656 23.96875 6.445312 23.960938 6.417969 23.949219 C 6.390625 23.945312 6.367188 23.9375 6.34375 23.929688 C 6.316406 23.917969 6.289062 23.910156 6.261719 23.902344 C 6.238281 23.894531 6.214844 23.886719 6.195312 23.878906 C 6.167969 23.871094 6.144531 23.863281 6.121094 23.855469 C 6.097656 23.847656 6.078125 23.839844 6.054688 23.832031 C 6.03125 23.824219 6.007812 23.8125 5.984375 23.804688 C 5.964844 23.796875 5.945312 23.789062 5.929688 23.785156 C 5.902344 23.773438 5.878906 23.765625 5.855469 23.753906 C 5.839844 23.746094 5.824219 23.742188 5.808594 23.734375 C 5.78125 23.722656 5.75 23.710938 5.722656 23.695312 C 5.710938 23.691406 5.703125 23.6875 5.691406 23.683594 C 5.660156 23.667969 5.628906 23.652344 5.601562 23.640625 C 5.589844 23.632812 5.578125 23.628906 5.570312 23.621094 C 5.550781 23.613281 5.53125 23.601562 5.515625 23.59375 C 5.917969 28.558594 10.085938 32.476562 15.152344 32.476562 C 20.21875 32.476562 24.386719 28.558594 24.789062 23.59375 Z M 17.804688 32.714844 C 16.957031 32.941406 16.070312 33.0625 15.152344 33.0625 C 14.234375 33.0625 13.347656 32.941406 12.5 32.714844 L 12.5 33.453125 L 17.804688 33.453125 Z M 5.484375 22.808594 C 5.484375 22.886719 5.75 23.164062 6.855469 23.464844 C 6.972656 23.128906 7.207031 22.632812 7.660156 22.359375 C 7.988281 22.160156 8.367188 22.113281 8.789062 22.222656 C 9.308594 22.359375 9.664062 22.578125 9.949219 22.753906 C 10.445312 23.054688 10.71875 23.222656 11.535156 22.882812 C 11.761719 22.792969 11.996094 22.683594 12.242188 22.574219 C 13.605469 21.953125 15.296875 21.1875 16.484375 22.410156 C 16.855469 22.789062 17.292969 23.164062 17.757812 23.40625 C 17.78125 23.390625 17.804688 23.375 17.824219 23.359375 C 18 23.136719 18.171875 22.914062 18.347656 22.691406 C 18.648438 22.300781 18.949219 21.910156 19.25 21.523438 C 17.980469 21.421875 16.589844 21.367188 15.152344 21.367188 C 12.507812 21.367188 10.023438 21.546875 8.160156 21.871094 C 5.9375 22.257812 5.484375 22.710938 5.484375 22.808594 Z M 13.085938 23.988281 C 12.941406 24.066406 12.800781 24.136719 12.660156 24.195312 C 13.460938 24.230469 14.300781 24.25 15.152344 24.25 C 15.558594 24.25 15.964844 24.246094 16.363281 24.238281 C 15.765625 23.738281 14.617188 23.136719 13.085938 23.988281 Z M 18.113281 24.171875 C 18.027344 24.148438 17.9375 24.117188 17.847656 24.085938 C 17.816406 24.078125 17.785156 24.066406 17.757812 24.050781 C 17.214844 23.824219 16.644531 23.410156 16.066406 22.816406 C 15.164062 21.890625 13.800781 22.507812 12.484375 23.105469 C 12.230469 23.21875 11.992188 23.328125 11.757812 23.425781 C 10.667969 23.875 10.171875 23.574219 9.644531 23.25 C 9.367188 23.082031 9.078125 22.90625 8.640625 22.789062 C 8.375 22.71875 8.15625 22.742188 7.960938 22.859375 C 7.6875 23.03125 7.519531 23.363281 7.429688 23.605469 C 7.546875 23.628906 7.671875 23.65625 7.800781 23.683594 C 7.835938 23.625 7.882812 23.566406 7.945312 23.519531 C 8.207031 23.308594 8.621094 23.292969 9.210938 23.46875 C 9.300781 23.496094 9.390625 23.527344 9.480469 23.554688 C 10.53125 23.878906 11.527344 24.1875 12.804688 23.476562 C 14.734375 22.402344 16.167969 23.273438 16.851562 23.886719 C 16.980469 24 17.140625 24.109375 17.324219 24.207031 C 17.589844 24.199219 17.855469 24.1875 18.113281 24.171875 Z M 23.472656 23.460938 C 23.351562 23.324219 23.175781 23.222656 22.949219 23.160156 C 22.054688 22.90625 20.625 23.292969 19.992188 23.796875 C 19.847656 23.910156 19.699219 24 19.546875 24.074219 C 19.984375 24.035156 20.402344 23.992188 20.804688 23.941406 C 21.328125 23.492188 22.144531 22.847656 22.894531 23.601562 C 23.109375 23.554688 23.300781 23.503906 23.472656 23.460938 Z M 19.9375 21.582031 C 19.773438 21.796875 19.605469 22.011719 19.441406 22.222656 C 19.726562 22.023438 20.015625 21.820312 20.300781 21.617188 C 20.183594 21.605469 20.058594 21.59375 19.9375 21.582031 Z M 25.4375 18.714844 C 25.132812 18.929688 24.828125 19.144531 24.527344 19.359375 C 23.636719 19.984375 22.75 20.609375 21.863281 21.234375 C 21.992188 21.253906 22.121094 21.273438 22.246094 21.296875 C 25.078125 21.789062 25.40625 22.394531 25.40625 22.808594 C 25.40625 27.332031 22.460938 31.179688 18.386719 32.539062 L 18.386719 34.039062 L 11.914062 34.039062 L 11.914062 32.539062 C 7.84375 31.179688 4.898438 27.332031 4.898438 22.808594 C 4.898438 22.394531 5.226562 21.789062 8.058594 21.296875 C 9.957031 20.964844 12.476562 20.785156 15.152344 20.785156 C 16.75 20.785156 18.289062 20.847656 19.675781 20.972656 C 20.859375 19.445312 22.039062 17.921875 23.21875 16.398438 C 23.449219 16.101562 23.863281 16.515625 23.632812 16.8125 C 23.40625 17.105469 23.175781 17.398438 22.949219 17.695312 L 20.359375 21.035156 C 20.585938 21.0625 20.804688 21.085938 21.019531 21.113281 C 22.394531 20.144531 23.769531 19.179688 25.144531 18.210938 C 25.453125 17.992188 25.746094 18.5 25.4375 18.714844 Z M 17.335938 31.820312 C 17.925781 31.65625 18.492188 31.4375 19.042969 31.167969 C 19.382812 31.003906 19.085938 30.496094 18.746094 30.664062 C 18.242188 30.910156 17.722656 31.105469 17.179688 31.257812 C 16.816406 31.359375 16.972656 31.925781 17.335938 31.820312 Z M 20.484375 30.273438 C 20.183594 30.503906 19.894531 29.992188 20.1875 29.765625 C 21.539062 28.726562 22.5625 27.3125 23.132812 25.707031 C 23.257812 25.355469 23.824219 25.507812 23.699219 25.863281 C 23.070312 27.625 21.964844 29.132812 20.484375 30.273438 " fill-opacity="1" fill-rule="nonzero"/></g><g clip-path="url(#71f576cb8f)"><path fill="#0097b2" d="M 10.558594 15.195312 C 10.554688 15.15625 10.523438 15.128906 10.484375 15.128906 C 9.851562 15.128906 9.324219 14.917969 8.917969 14.5 C 7.90625 13.457031 7.949219 11.457031 7.949219 11.4375 C 7.953125 11.394531 7.917969 11.359375 7.878906 11.359375 C 7.839844 11.359375 7.804688 11.390625 7.800781 11.429688 C 7.75 12.929688 7.371094 14.003906 6.675781 14.625 C 6.089844 15.148438 5.457031 15.171875 5.308594 15.167969 C 5.296875 15.167969 5.285156 15.167969 5.269531 15.167969 C 5.230469 15.167969 5.195312 15.195312 5.195312 15.238281 C 5.191406 15.277344 5.222656 15.3125 5.261719 15.316406 C 5.265625 15.316406 5.285156 15.316406 5.3125 15.316406 C 5.859375 15.34375 6.324219 15.558594 6.691406 15.953125 C 7.644531 16.972656 7.726562 18.925781 7.726562 19.488281 C 7.726562 19.542969 7.726562 19.59375 7.726562 19.644531 C 7.726562 19.6875 7.757812 19.71875 7.796875 19.71875 C 7.800781 19.71875 7.800781 19.71875 7.800781 19.71875 C 7.839844 19.71875 7.871094 19.6875 7.875 19.648438 C 7.875 19.632812 7.878906 19.5625 7.875 19.453125 C 7.902344 18.382812 8.164062 16.980469 9.1875 16.027344 C 9.835938 15.417969 10.492188 15.277344 10.5 15.277344 C 10.535156 15.269531 10.5625 15.234375 10.558594 15.195312 Z M 9.089844 15.910156 C 8.316406 16.632812 7.960938 17.59375 7.816406 18.488281 C 7.714844 17.65625 7.457031 16.558594 6.800781 15.851562 C 6.523438 15.554688 6.195312 15.355469 5.824219 15.25 C 6.097656 15.179688 6.4375 15.03125 6.769531 14.738281 C 7.34375 14.230469 7.710938 13.4375 7.867188 12.375 C 7.878906 12.445312 7.890625 12.523438 7.90625 12.601562 C 8.101562 13.683594 8.507812 14.285156 8.8125 14.601562 C 9.164062 14.964844 9.597656 15.179688 10.105469 15.253906 C 9.839844 15.363281 9.46875 15.5625 9.089844 15.910156 Z M 6.089844 17.277344 C 5.964844 17.277344 5.867188 17.238281 5.789062 17.15625 C 5.585938 16.949219 5.59375 16.542969 5.59375 16.539062 C 5.59375 16.503906 5.570312 16.476562 5.535156 16.476562 C 5.503906 16.476562 5.476562 16.5 5.476562 16.535156 C 5.464844 16.839844 5.390625 17.054688 5.253906 17.179688 C 5.140625 17.28125 5.023438 17.285156 4.992188 17.285156 C 4.992188 17.285156 4.988281 17.285156 4.984375 17.285156 C 4.953125 17.28125 4.925781 17.308594 4.921875 17.339844 C 4.921875 17.371094 4.945312 17.398438 4.976562 17.402344 C 4.976562 17.402344 4.980469 17.402344 4.988281 17.402344 C 5.09375 17.410156 5.179688 17.449219 5.253906 17.523438 C 5.441406 17.730469 5.460938 18.128906 5.460938 18.242188 C 5.460938 18.253906 5.460938 18.265625 5.460938 18.277344 C 5.460938 18.3125 5.484375 18.335938 5.519531 18.335938 C 5.550781 18.335938 5.578125 18.3125 5.578125 18.28125 C 5.578125 18.277344 5.578125 18.261719 5.578125 18.238281 C 5.597656 17.511719 6.078125 17.398438 6.101562 17.394531 C 6.128906 17.386719 6.152344 17.359375 6.148438 17.328125 C 6.144531 17.300781 6.117188 17.277344 6.089844 17.277344 Z M 5.761719 17.453125 C 5.679688 17.53125 5.589844 17.648438 5.527344 17.828125 C 5.496094 17.691406 5.4375 17.546875 5.339844 17.445312 C 5.300781 17.402344 5.261719 17.371094 5.21875 17.347656 C 5.253906 17.328125 5.292969 17.304688 5.328125 17.269531 C 5.421875 17.1875 5.488281 17.078125 5.53125 16.933594 C 5.566406 17.042969 5.621094 17.152344 5.703125 17.238281 C 5.757812 17.292969 5.816406 17.332031 5.886719 17.359375 C 5.847656 17.382812 5.804688 17.414062 5.761719 17.453125 Z M 5.28125 13.273438 C 5.246094 13.28125 4.425781 13.46875 4.394531 14.691406 C 4.394531 14.730469 4.394531 14.753906 4.394531 14.761719 C 4.394531 14.792969 4.367188 14.816406 4.335938 14.816406 C 4.300781 14.816406 4.277344 14.789062 4.277344 14.757812 C 4.277344 14.738281 4.277344 14.71875 4.277344 14.703125 C 4.277344 14.507812 4.25 13.84375 3.925781 13.5 C 3.804688 13.367188 3.652344 13.296875 3.46875 13.289062 C 3.460938 13.289062 3.453125 13.289062 3.453125 13.285156 C 3.417969 13.285156 3.394531 13.257812 3.398438 13.226562 C 3.398438 13.191406 3.425781 13.167969 3.457031 13.167969 C 3.460938 13.167969 3.464844 13.167969 3.472656 13.167969 C 3.519531 13.167969 3.730469 13.160156 3.921875 12.988281 C 4.15625 12.777344 4.285156 12.414062 4.304688 11.902344 C 4.304688 11.871094 4.332031 11.84375 4.363281 11.84375 C 4.398438 11.847656 4.421875 11.875 4.421875 11.90625 C 4.421875 11.914062 4.40625 12.59375 4.75 12.945312 C 4.882812 13.085938 5.058594 13.15625 5.269531 13.15625 C 5.300781 13.15625 5.324219 13.179688 5.328125 13.207031 C 5.332031 13.238281 5.308594 13.265625 5.28125 13.273438 Z M 5.28125 13.273438 " fill-opacity="1" fill-rule="nonzero"/></g><g fill="#0097b2" fill-opacity="1"><g transform="translate(4.095589, 10.786842)"><g><path d="M 0.34375 -0.0625 C 0.601562 -0.0625 0.804688 -0.117188 0.953125 -0.234375 C 1.097656 -0.359375 1.171875 -0.546875 1.171875 -0.796875 L 1.171875 -5.1875 C 1.171875 -5.351562 1.140625 -5.484375 1.078125 -5.578125 C 1.023438 -5.671875 0.957031 -5.742188 0.875 -5.796875 C 0.800781 -5.847656 0.71875 -5.882812 0.625 -5.90625 C 0.539062 -5.925781 0.476562 -5.9375 0.4375 -5.9375 L 0.34375 -5.9375 L 0.34375 -6 L 3.359375 -6 C 3.640625 -6 3.910156 -5.96875 4.171875 -5.90625 C 4.429688 -5.851562 4.664062 -5.765625 4.875 -5.640625 C 5.082031 -5.515625 5.242188 -5.351562 5.359375 -5.15625 C 5.484375 -4.96875 5.546875 -4.734375 5.546875 -4.453125 C 5.546875 -4.140625 5.46875 -3.878906 5.3125 -3.671875 C 5.164062 -3.460938 4.96875 -3.296875 4.71875 -3.171875 C 4.476562 -3.046875 4.21875 -2.960938 3.9375 -2.921875 C 4.269531 -2.898438 4.535156 -2.84375 4.734375 -2.75 C 4.929688 -2.664062 5.09375 -2.519531 5.21875 -2.3125 C 5.351562 -2.113281 5.476562 -1.835938 5.59375 -1.484375 C 5.707031 -1.109375 5.820312 -0.816406 5.9375 -0.609375 C 6.0625 -0.410156 6.195312 -0.269531 6.34375 -0.1875 C 6.488281 -0.101562 6.664062 -0.0625 6.875 -0.0625 L 6.875 0 L 5.625 0 C 5.363281 0 5.109375 -0.109375 4.859375 -0.328125 C 4.617188 -0.546875 4.390625 -0.929688 4.171875 -1.484375 C 4.066406 -1.753906 3.988281 -1.976562 3.9375 -2.15625 C 3.894531 -2.332031 3.851562 -2.472656 3.8125 -2.578125 C 3.78125 -2.679688 3.734375 -2.753906 3.671875 -2.796875 C 3.617188 -2.835938 3.53125 -2.859375 3.40625 -2.859375 L 2.609375 -2.859375 L 2.609375 -0.78125 C 2.609375 -0.539062 2.664062 -0.359375 2.78125 -0.234375 C 2.90625 -0.117188 3.09375 -0.0625 3.34375 -0.0625 L 3.34375 0 L 0.34375 0 Z M 3.359375 -2.9375 C 3.523438 -2.9375 3.664062 -3.003906 3.78125 -3.140625 C 3.894531 -3.273438 3.976562 -3.457031 4.03125 -3.6875 C 4.09375 -3.914062 4.125 -4.171875 4.125 -4.453125 C 4.125 -4.734375 4.09375 -4.984375 4.03125 -5.203125 C 3.976562 -5.429688 3.894531 -5.609375 3.78125 -5.734375 C 3.664062 -5.867188 3.523438 -5.9375 3.359375 -5.9375 L 2.609375 -5.9375 L 2.609375 -2.9375 Z M 3.359375 -2.9375 "/></g></g></g><g fill="#0097b2" fill-opacity="1"><g transform="translate(11.310422, 10.786842)"><g><path d="M 1.203125 -5.21875 L 1.203125 -0.765625 C 1.210938 -0.535156 1.289062 -0.359375 1.4375 -0.234375 C 1.582031 -0.117188 1.769531 -0.0625 2 -0.0625 L 2 0 L 0.34375 0 L 0.34375 -0.0625 C 0.59375 -0.0625 0.785156 -0.125 0.921875 -0.25 C 1.066406 -0.375 1.140625 -0.546875 1.140625 -0.765625 L 1.140625 -5.21875 C 1.140625 -5.40625 1.097656 -5.546875 1.015625 -5.640625 C 0.941406 -5.742188 0.847656 -5.8125 0.734375 -5.84375 C 0.628906 -5.882812 0.535156 -5.910156 0.453125 -5.921875 C 0.378906 -5.929688 0.34375 -5.9375 0.34375 -5.9375 L 0.34375 -6 L 2.40625 -6 L 4.234375 -1.8125 L 6.046875 -6 L 8.25 -6 L 8.25 -5.921875 C 8.25 -5.921875 8.207031 -5.914062 8.125 -5.90625 C 8.050781 -5.90625 7.960938 -5.882812 7.859375 -5.84375 C 7.753906 -5.800781 7.660156 -5.726562 7.578125 -5.625 C 7.503906 -5.53125 7.46875 -5.382812 7.46875 -5.1875 L 7.46875 -0.765625 C 7.476562 -0.535156 7.554688 -0.359375 7.703125 -0.234375 C 7.847656 -0.117188 8.035156 -0.0625 8.265625 -0.0625 L 8.265625 0 L 5.25 0 L 5.25 -0.0625 C 5.5 -0.0625 5.691406 -0.125 5.828125 -0.25 C 5.972656 -0.375 6.046875 -0.546875 6.046875 -0.765625 L 6.046875 -5.859375 L 3.484375 0.0625 Z M 1.203125 -5.21875 "/></g></g></g><g fill="#0097b2" fill-opacity="1"><g transform="translate(19.915402, 10.786842)"><g><path d="M 3.390625 0 C 2.984375 0 2.601562 -0.0703125 2.25 -0.21875 C 1.894531 -0.363281 1.578125 -0.566406 1.296875 -0.828125 C 1.023438 -1.097656 0.800781 -1.40625 0.625 -1.75 C 0.457031 -2.101562 0.363281 -2.476562 0.34375 -2.875 L 0.34375 -3.21875 C 0.382812 -3.976562 0.691406 -4.644531 1.265625 -5.21875 C 1.546875 -5.5 1.867188 -5.710938 2.234375 -5.859375 C 2.597656 -6.015625 2.984375 -6.09375 3.390625 -6.09375 C 3.742188 -6.09375 4.085938 -6.03125 4.421875 -5.90625 C 4.742188 -5.8125 4.976562 -5.773438 5.125 -5.796875 C 5.28125 -5.816406 5.363281 -5.894531 5.375 -6.03125 L 5.4375 -6.03125 L 5.4375 -4.390625 L 5.375 -4.390625 C 5.363281 -4.753906 5.253906 -5.054688 5.046875 -5.296875 C 4.847656 -5.546875 4.5625 -5.738281 4.1875 -5.875 C 4.007812 -5.925781 3.847656 -5.957031 3.703125 -5.96875 C 3.554688 -5.988281 3.453125 -6 3.390625 -6 C 3.296875 -6 3.179688 -5.976562 3.046875 -5.9375 C 2.910156 -5.90625 2.769531 -5.832031 2.625 -5.71875 C 2.476562 -5.613281 2.335938 -5.453125 2.203125 -5.234375 C 2.078125 -5.023438 1.972656 -4.742188 1.890625 -4.390625 C 1.804688 -4.035156 1.765625 -3.585938 1.765625 -3.046875 C 1.765625 -2.515625 1.804688 -2.066406 1.890625 -1.703125 C 1.972656 -1.347656 2.078125 -1.0625 2.203125 -0.84375 C 2.335938 -0.625 2.476562 -0.457031 2.625 -0.34375 C 2.769531 -0.238281 2.910156 -0.164062 3.046875 -0.125 C 3.179688 -0.09375 3.296875 -0.078125 3.390625 -0.078125 C 3.523438 -0.078125 3.6875 -0.0976562 3.875 -0.140625 C 4.070312 -0.179688 4.234375 -0.234375 4.359375 -0.296875 L 4.359375 -1.921875 C 4.359375 -2.160156 4.285156 -2.335938 4.140625 -2.453125 C 3.992188 -2.578125 3.804688 -2.640625 3.578125 -2.640625 L 3.578125 -2.703125 L 6.578125 -2.703125 L 6.578125 -2.640625 C 6.335938 -2.640625 6.144531 -2.578125 6 -2.453125 C 5.863281 -2.328125 5.789062 -2.15625 5.78125 -1.9375 L 5.78125 -0.0625 L 5.71875 -0.0625 C 5.71875 -0.144531 5.648438 -0.207031 5.515625 -0.25 C 5.378906 -0.289062 5.210938 -0.300781 5.015625 -0.28125 C 4.828125 -0.269531 4.628906 -0.238281 4.421875 -0.1875 C 4.085938 -0.0625 3.742188 0 3.390625 0 Z M 3.390625 0 "/></g></g></g></svg>